<?xml version="1.0" standalone="no"?>
<!DOCTYPE svg PUBLIC "-//W3C//DTD SVG 20010904//EN"
 "http://www.w3.org/TR/2001/REC-SVG-20010904/DTD/svg10.dtd">
<svg version="1.0" xmlns="http://www.w3.org/2000/svg"
 width="500.000000pt" height="500.000000pt" viewBox="0 0 500.000000 500.000000"
 preserveAspectRatio="xMidYMid meet">
<metadata>
Created by potrace 1.14, written by Peter Selinger 2001-2017
</metadata>
<g transform="translate(0.000000,500.000000) scale(0.100000,-0.100000)"
fill="#000000" stroke="none">
<path d="M2290 4784 c-14 -2 -65 -9 -115 -15 -350 -44 -742 -208 -1054 -442
-120 -90 -325 -293 -419 -415 -245 -319 -404 -701 -458 -1102 -18 -140 -18
-439 1 -587 102 -782 604 -1458 1325 -1782 302 -136 587 -196 935 -195 224 0
346 14 532 59 1142 277 1883 1374 1717 2540 -127 885 -779 1626 -1644 1866
-199 55 -324 71 -570 74 -124 2 -236 2 -250 -1z m405 -134 c6 -10 -10 -218
-21 -268 -4 -22 -2 -23 43 -20 l48 3 13 120 c7 66 15 126 17 133 2 6 18 12 35
12 37 0 37 19 2 -300 -26 -239 -28 -245 -52 -257 l-25 -13 32 0 c35 0 36 3 48
112 4 33 11 57 17 55 6 -1 15 14 20 33 4 19 29 101 55 183 48 151 53 158 97
141 22 -9 20 -39 -9 -125 -31 -89 -71 -239 -80 -294 -4 -28 -1 -46 10 -60 12
-16 14 -17 9 -2 -3 9 -3 33 1 53 6 33 8 35 33 29 15 -4 33 -8 41 -9 14 -1 50
92 97 260 26 91 39 109 69 98 23 -9 19 -39 -30 -200 -56 -184 -70 -220 -102
-263 -37 -48 -76 -62 -130 -46 -50 15 -55 12 -13 -10 68 -35 140 -8 180 69 14
25 29 46 35 46 5 0 48 72 95 161 47 88 93 167 102 176 23 21 66 9 78 -22 10
-26 -1 -109 -26 -209 -8 -32 -14 -59 -12 -61 2 -1 43 42 92 96 70 78 94 99
115 99 31 0 51 -16 51 -42 0 -27 -228 -478 -243 -479 -6 -1 -18 -1 -26 0 -7 2
-10 -2 -6 -8 14 -24 42 -8 80 44 22 30 42 55 46 55 3 0 55 43 115 95 60 53
132 112 160 131 57 39 78 37 110 -10 15 -23 11 -32 -102 -233 -134 -239 -149
-263 -172 -263 -15 -1 -15 -2 1 -11 23 -13 40 0 78 61 16 25 29 41 29 35 0 -5
68 58 151 140 l150 150 25 -28 25 -29 -130 -136 c-156 -165 -231 -238 -251
-245 -13 -4 -12 -6 2 -12 17 -7 57 22 326 232 122 96 129 99 153 77 10 -9 19
-26 19 -37 0 -10 -39 -76 -86 -145 -61 -89 -77 -119 -56 -102 152 126 209 169
218 170 17 0 37 -28 31 -44 -7 -17 -394 -335 -422 -346 -19 -7 -19 -9 -2 -15
11 -5 30 2 55 19 21 14 41 26 44 26 4 0 85 47 179 105 95 58 181 105 191 105
18 0 47 -39 87 -118 17 -34 20 -47 10 -58 -21 -26 -48 -16 -75 29 -15 23 -28
44 -30 46 -3 3 -120 -64 -173 -98 -12 -7 -9 -17 13 -56 29 -49 26 -67 -15 -78
-15 -4 -26 4 -46 36 -15 23 -28 44 -30 46 -3 5 -93 -48 -93 -55 0 -3 14 -25
30 -49 37 -53 37 -61 4 -78 -18 -9 -23 -16 -15 -21 12 -8 61 18 61 32 0 5 -13
29 -30 55 -32 51 -34 57 -22 57 13 0 77 -140 112 -245 56 -164 81 -311 87
-505 3 -96 1 -205 -4 -241 l-9 -66 84 -11 c47 -6 89 -9 93 -6 5 3 9 18 9 34 0
44 17 80 39 80 32 0 42 -23 35 -84 l-7 -56 41 0 c22 0 47 -2 55 -6 11 -4 16 9
21 58 7 72 15 83 52 74 27 -7 27 -7 20 -74 -3 -37 -6 -82 -6 -100 0 -56 -17
-58 -281 -23 -129 17 -238 31 -244 31 -21 -1 21 -20 44 -20 22 0 23 -3 17 -43
l-7 -44 163 -47 c90 -26 171 -49 181 -52 14 -5 17 2 17 41 0 46 0 46 33 43 31
-3 32 -5 35 -50 4 -60 -9 -108 -33 -124 -17 -11 -53 -3 -255 55 -129 37 -246
71 -260 76 -16 5 -21 4 -15 -2 6 -6 31 -16 57 -23 46 -12 46 -13 36 -42 -6
-16 -9 -30 -7 -32 2 -2 94 -26 204 -55 109 -29 204 -56 211 -62 14 -12 6 -59
-13 -66 -11 -5 -66 5 -124 23 -12 3 -21 -8 -34 -43 l-18 -47 24 -15 c13 -9 37
-28 53 -42 27 -24 29 -29 18 -53 -21 -47 -40 -38 -290 136 -64 44 -128 90
-142 102 -14 11 -12 7 5 -10 30 -30 31 -32 16 -62 -8 -18 -13 -33 -10 -35 2
-2 74 -52 159 -111 85 -59 163 -116 173 -125 20 -19 15 -46 -10 -55 -12 -5
-193 37 -308 71 -11 3 25 -25 81 -63 170 -117 161 -108 144 -141 -9 -15 -23
-29 -32 -31 -15 -3 -109 57 -328 208 -41 28 -65 42 -52 31 14 -12 18 -22 12
-26 -6 -4 5 -18 27 -34 51 -37 140 -135 162 -180 49 -95 47 -163 -5 -212 -37
-34 -103 -32 -173 6 -60 33 -169 130 -191 169 -13 26 -45 32 -45 10 0 -7 44
-68 99 -137 156 -199 153 -193 131 -217 -10 -11 -23 -20 -29 -20 -17 0 -100
89 -195 208 l-83 103 -31 -24 c-18 -13 -37 -26 -44 -28 -12 -4 -4 -20 129
-235 37 -62 68 -119 68 -127 0 -14 -44 -57 -59 -57 -4 0 -56 81 -116 179
l-109 179 -35 -22 c-20 -12 -41 -26 -48 -30 -8 -4 -25 13 -48 46 -19 29 -35
49 -35 45 0 -3 39 -66 87 -139 171 -261 193 -299 183 -318 -5 -10 -18 -20 -30
-23 -21 -5 -58 30 -86 84 -15 29 -15 29 -52 14 -53 -23 -55 -27 -43 -85 15
-68 15 -67 -14 -86 -46 -30 -64 7 -120 258 -27 117 -27 117 -52 107 -13 -5
-28 -7 -32 -4 -5 2 -14 32 -21 65 -7 33 -16 60 -21 60 -5 0 -6 -6 -4 -12 12
-36 115 -479 115 -497 0 -25 -35 -37 -57 -19 -9 7 -52 67 -95 133 -43 66 -78
116 -78 112 0 -4 14 -65 30 -134 17 -69 30 -132 30 -139 0 -8 -12 -19 -26 -24
-50 -19 -59 -4 -104 187 -23 98 -45 180 -49 183 -3 3 -14 21 -24 40 -10 19
-15 26 -11 15 25 -77 12 -162 -32 -215 l-25 -29 51 -67 c53 -68 58 -89 27
-108 -24 -15 -43 -2 -101 75 -27 35 -52 65 -56 67 -4 1 -5 -40 -2 -92 4 -89 4
-94 -17 -101 -26 -8 -57 1 -65 20 -3 8 -10 74 -16 147 -6 73 -13 152 -16 175
l-5 43 -75 0 -75 0 3 38 3 37 55 1 c76 1 78 1 85 24 10 31 -5 45 -19 18 -11
-21 -18 -23 -73 -20 l-61 3 -6 -63 c-4 -35 -9 -84 -12 -110 l-6 -47 59 -3 c52
-3 58 -5 61 -26 6 -40 -13 -51 -74 -45 l-54 6 0 -41 c0 -22 -3 -47 -6 -56 -5
-13 1 -16 34 -16 22 0 54 -3 71 -6 29 -6 32 -10 29 -38 -3 -29 -6 -31 -48 -34
-25 -1 -72 1 -104 5 -54 7 -60 11 -67 35 -4 15 -1 96 7 180 7 84 13 159 14
166 0 7 -13 12 -32 12 -52 0 -59 9 -46 58 l11 43 38 -6 c29 -5 39 -3 39 7 0 9
-14 13 -46 13 -38 0 -48 -4 -54 -20 -4 -11 -31 -116 -60 -232 -40 -162 -57
-214 -70 -218 -26 -8 -70 12 -70 32 0 10 20 94 44 186 l44 168 -24 10 c-14 5
-31 9 -39 9 -24 0 -25 16 -3 68 12 29 19 55 15 58 -4 4 -9 5 -11 3 -2 -2 -47
-103 -99 -224 -92 -213 -96 -220 -123 -220 l-29 0 0 95 c0 52 3 131 8 175 l7
80 -61 -143 c-58 -131 -64 -142 -89 -142 -29 0 -50 16 -50 39 0 8 30 84 66
169 36 84 64 156 61 158 -3 3 13 37 35 76 22 38 37 77 34 85 -4 11 -15 -2 -35
-38 -55 -104 -217 -379 -234 -399 -14 -17 -20 -18 -42 -8 -15 7 -25 19 -25 32
0 12 36 86 80 164 44 79 80 147 80 151 0 4 -10 13 -23 18 -29 14 -227 162
-227 171 0 3 17 23 37 44 20 21 33 41 29 45 -5 5 -41 -28 -82 -71 l-74 -79 40
-34 c41 -35 49 -60 28 -81 -20 -20 -40 -14 -80 25 l-38 37 -34 -40 c-20 -21
-35 -42 -36 -45 0 -4 20 -23 45 -43 49 -41 54 -55 27 -79 -21 -20 -30 -15
-124 66 -57 48 -58 49 -43 77 8 16 54 73 103 127 128 145 120 129 86 164 l-29
31 25 20 c14 11 36 29 49 39 15 12 21 23 15 29 -5 5 -76 -45 -179 -126 -221
-176 -209 -168 -234 -154 -11 6 -26 20 -32 31 -12 24 -15 21 166 162 55 44
101 83 103 88 2 4 -8 24 -23 43 l-26 34 54 30 c30 17 57 38 60 46 8 19 -5 13
-249 -120 -95 -52 -178 -94 -187 -94 -8 0 -20 7 -27 15 -19 23 -3 47 114 171
55 59 96 105 91 103 -6 -2 -68 -35 -138 -72 -125 -67 -129 -68 -148 -51 -12
11 -19 28 -17 42 2 21 28 39 151 106 112 61 146 84 142 96 -4 8 -7 19 -8 23
-1 5 36 30 83 56 l85 47 -1 42 c0 24 -5 47 -11 53 -8 8 -9 -2 -6 -33 l5 -43
-230 -123 c-127 -67 -240 -122 -251 -122 -23 0 -45 34 -37 56 3 8 30 26 61 41
30 15 55 32 55 39 0 6 -7 28 -15 48 l-15 37 -64 -7 c-58 -6 -65 -5 -75 14 -6
11 -11 25 -11 31 0 25 56 43 191 62 79 12 145 22 147 24 2 1 -7 42 -19 90
l-22 88 24 20 c19 15 35 18 77 15 38 -3 50 -2 42 6 -6 6 -35 11 -64 11 -65 0
-82 -13 -136 -105 -44 -74 -84 -103 -144 -103 -81 0 -135 48 -143 126 -7 73
63 159 116 142 32 -10 38 -46 10 -67 -46 -35 -49 -39 -49 -68 0 -62 66 -81
112 -32 14 15 36 49 49 76 12 27 37 63 54 81 l32 32 -5 119 c-9 233 45 530
133 729 l23 52 -61 54 c-130 114 -207 192 -207 209 0 25 38 70 60 70 10 0 86
-27 169 -59 146 -57 152 -59 165 -40 13 18 15 18 65 -22 28 -22 51 -39 51 -36
0 3 -85 74 -190 158 -104 85 -190 159 -190 166 0 19 42 54 54 44 6 -4 71 -54
144 -110 l133 -103 22 28 c12 16 29 36 38 44 15 14 4 27 -114 147 l-131 132
24 26 c13 14 27 25 31 25 4 0 64 -54 133 -121 l126 -121 44 39 c52 45 58 30
-73 178 -50 57 -91 110 -91 119 0 8 12 23 26 32 25 17 25 17 79 -42 172 -191
172 -190 193 -171 20 18 20 19 -23 110 -23 51 -55 123 -70 162 l-27 69 31 28
c17 15 39 28 49 28 9 0 71 -54 138 -121 111 -111 123 -120 143 -110 12 7 20
15 18 19 -2 4 -35 76 -72 161 l-68 154 22 19 c13 10 29 18 37 18 12 0 97 -84
183 -180 31 -34 31 -33 -15 65 -79 170 -76 162 -58 180 9 9 23 15 32 13 19 -4
244 -474 240 -502 -2 -15 -10 -21 -27 -20 -23 1 -23 0 -5 -13 21 -15 34 -13
48 9 7 12 0 38 -31 106 -34 74 -38 90 -26 98 13 8 13 18 -2 74 -40 153 -37
273 8 305 55 39 132 1 162 -80 19 -49 14 -65 -19 -65 -17 0 -27 10 -39 40 -11
29 -21 40 -36 40 -19 0 -21 -6 -21 -53 0 -30 9 -87 19 -128 18 -72 65 -189 75
-189 3 0 -4 19 -14 43 l-19 42 39 12 c22 6 47 19 55 27 12 11 22 13 41 6 19
-8 26 -6 30 5 3 8 -4 87 -16 176 -19 135 -20 163 -9 175 9 8 51 16 107 20 l92
7 0 -30 c0 -34 -6 -38 -74 -48 -44 -7 -47 -9 -42 -34 3 -14 8 -51 11 -81 12
-113 10 -108 63 -98 57 10 72 5 72 -25 0 -31 -18 -47 -54 -47 -51 0 -58 -10
-50 -68 3 -29 10 -52 13 -52 4 0 5 22 1 49 l-6 49 50 7 c28 3 101 9 162 11
l111 5 17 167 c23 231 21 222 61 222 19 0 37 -5 40 -10z"/>
<path d="M2655 4195 c-7 -90 -22 -113 -61 -98 -12 4 -15 3 -10 -5 11 -19 64
-14 75 6 5 9 12 49 16 87 l7 71 32 -4 c24 -3 35 1 39 12 5 13 -2 16 -42 16
l-49 0 -7 -85z"/>
<path d="M3238 4123 c-73 -139 -86 -158 -106 -156 -27 3 -21 -12 7 -20 27 -7
35 1 70 71 l32 63 75 -41 75 -41 14 35 c8 19 30 60 50 93 19 32 35 61 35 65 0
3 -30 -25 -67 -63 -58 -60 -71 -70 -98 -67 -30 3 -30 4 -28 55 1 29 9 78 17
108 8 30 13 55 11 55 -2 0 -41 -71 -87 -157z"/>
<path d="M2130 4175 c0 -77 -21 -122 -64 -140 -26 -11 -42 -12 -63 -5 -26 9
-27 9 -9 -5 23 -18 69 -20 98 -4 11 6 28 29 39 52 20 45 26 142 9 152 -6 4
-10 -15 -10 -50z"/>
<path d="M1705 4067 c36 -77 62 -143 59 -148 -9 -14 -61 -39 -68 -32 -3 4 -6
-1 -6 -9 0 -27 -29 -44 -51 -30 -29 18 -23 5 6 -14 24 -16 27 -16 45 1 11 10
20 24 20 31 0 7 8 10 19 7 11 -3 28 4 40 16 19 19 20 22 4 58 -8 21 -29 64
-45 97 -17 34 -26 61 -20 65 5 3 -8 26 -29 51 l-40 45 66 -138z"/>
<path d="M1353 4130 c23 -56 81 -170 87 -170 3 0 15 8 27 18 l22 17 -42 49
c-23 27 -57 65 -75 85 l-33 36 14 -35z"/>
<path d="M2387 4131 c7 -26 -14 -35 -110 -51 -51 -9 -75 -16 -68 -23 6 -6 41
-4 100 8 89 17 91 18 91 46 0 15 -4 30 -9 33 -5 4 -7 -3 -4 -13z"/>
<path d="M3676 3997 l-79 -73 26 -17 c15 -9 28 -17 31 -17 2 0 23 30 47 68 23
37 49 77 57 90 26 40 -1 23 -82 -51z"/>
<path d="M2341 3980 c-440 -56 -843 -311 -1083 -686 -87 -135 -170 -347 -205
-521 -27 -136 -24 -424 6 -563 32 -148 63 -237 131 -375 81 -164 248 -385 290
-385 24 0 32 11 19 27 -16 18 -6 16 35 -8 20 -12 36 -27 36 -35 0 -19 -41 -34
-93 -34 -34 -1 -39 -3 -24 -11 10 -6 30 -8 46 -4 23 5 36 -1 72 -31 74 -62
186 -133 287 -184 562 -279 1231 -176 1684 258 216 208 357 454 426 745 24
103 27 130 27 322 0 235 -9 300 -71 485 -166 498 -598 875 -1123 981 -112 23
-351 32 -460 19z m-89 -75 c-124 -48 -261 -158 -335 -270 -26 -40 -27 -41
-117 -53 -147 -20 -280 -79 -379 -168 -97 -87 -50 -22 72 100 175 176 355 289
572 360 150 49 298 73 187 31z m192 8 c-48 -111 -58 -159 -58 -298 -1 -77 3
-162 7 -189 l9 -50 -39 35 c-94 84 -216 141 -357 168 l-88 16 47 63 c89 118
233 212 385 252 96 24 104 25 94 3z m89 -41 c77 -171 79 -385 6 -569 -12 -29
-25 -53 -29 -53 -15 0 -69 93 -84 144 -28 95 -35 173 -26 258 15 128 65 278
93 278 8 0 26 -26 40 -58z m132 43 c141 -30 292 -123 389 -241 31 -38 56 -71
56 -75 0 -4 -26 -11 -57 -15 -149 -18 -292 -85 -402 -189 -46 -44 -71 -62 -67
-49 58 185 46 366 -39 567 -9 22 22 23 120 2z m191 -9 c295 -72 571 -242 757
-465 95 -115 98 -121 25 -54 -122 112 -253 174 -414 196 -80 11 -82 12 -108
52 -64 102 -200 213 -325 266 -81 35 -65 36 65 5z m-1002 -383 c-58 -132 -78
-319 -50 -453 9 -41 16 -79 16 -83 0 -5 -31 20 -70 56 -104 97 -208 146 -368
176 l-83 16 41 57 c101 141 327 265 488 267 l42 1 -16 -37z m101 -45 c39 -117
46 -262 17 -376 -22 -86 -69 -202 -82 -202 -9 0 -46 98 -61 165 -20 85 -15
249 10 338 25 93 56 157 75 157 8 0 25 -34 41 -82z m113 62 c168 -47 334 -166
380 -273 7 -15 12 -29 12 -31 0 -14 -169 37 -231 69 -80 42 -179 130 -244 218
-25 33 -25 37 -8 37 10 0 51 -9 91 -20z m1017 -17 c-8 -22 -48 -69 -91 -111
-85 -81 -193 -140 -304 -166 -69 -17 -140 -21 -140 -8 0 18 95 126 148 167
103 82 270 153 365 154 l37 1 -15 -37z m215 21 c142 -33 286 -126 382 -245
l50 -63 -28 -7 c-16 -3 -58 -12 -94 -18 -121 -23 -247 -88 -356 -184 -26 -23
-45 -35 -42 -26 37 96 35 328 -2 439 -12 36 -28 77 -36 93 l-15 27 38 0 c21 0
67 -7 103 -16z m-132 -59 c67 -175 66 -392 -4 -548 -10 -21 -22 -36 -27 -34
-17 5 -56 113 -76 210 -21 104 -17 195 15 306 14 51 52 121 65 121 3 0 16 -25
27 -55z m-1014 -159 c63 -42 180 -95 209 -96 35 0 15 -17 -35 -29 -94 -21
-212 -87 -295 -165 -42 -39 -73 -62 -69 -51 38 101 54 312 33 438 l-9 49 54
-54 c29 -29 80 -71 112 -92z m886 34 c-19 -100 -8 -249 26 -368 5 -18 -5 -12
-45 27 -88 86 -187 145 -296 176 l-58 17 70 23 c85 27 178 78 253 139 30 24
56 43 58 42 1 -2 -2 -27 -8 -56z m-1596 -180 c141 -36 285 -128 371 -238 25
-31 45 -61 45 -66 0 -15 -117 2 -192 28 -38 14 -95 40 -126 58 -59 34 -210
175 -231 216 -11 21 -10 22 22 22 19 0 68 -9 111 -20z m1036 12 c0 -4 -25 -38
-55 -74 -57 -70 -144 -137 -233 -182 -86 -44 -262 -83 -262 -58 0 4 22 35 49
68 62 76 154 147 250 191 97 46 251 79 251 55z m204 -12 c151 -38 308 -144
395 -265 l35 -48 -63 6 c-126 14 -265 78 -367 170 -49 44 -124 136 -124 151 0
11 46 6 124 -14z m1036 14 c0 -16 -66 -98 -123 -151 -78 -72 -146 -113 -247
-146 -77 -26 -190 -45 -190 -32 0 17 76 109 137 165 76 69 174 121 283 149 74
20 140 27 140 15z m-2304 -172 c66 -59 212 -136 292 -155 28 -6 52 -14 52 -18
0 -3 -24 -11 -53 -18 -141 -31 -300 -138 -394 -265 l-43 -58 -20 46 c-79 178
-79 408 -1 590 l21 48 43 -59 c24 -32 70 -82 103 -111z m2390 43 c50 -155 41
-354 -23 -497 l-25 -57 -58 73 c-90 114 -195 186 -344 236 l-78 27 83 29 c144
50 296 167 374 287 l18 29 14 -24 c7 -12 24 -59 39 -103z m-1250 10 c26 -73
28 -92 28 -225 0 -132 -2 -153 -27 -227 -15 -45 -32 -85 -38 -88 -13 -9 -45
66 -65 151 -20 87 -21 239 -1 324 20 85 55 166 67 154 5 -5 21 -45 36 -89z
m1302 -35 c116 -288 134 -635 48 -932 -14 -48 -33 -102 -41 -120 l-15 -33 7
35 c3 19 6 80 5 135 -1 112 -25 222 -67 304 l-25 51 19 38 c82 161 99 389 41
558 -28 79 -10 56 28 -36z m-1091 -88 c52 -33 128 -65 233 -99 8 -3 -19 -15
-60 -27 -110 -32 -211 -90 -296 -168 l-74 -70 14 40 c47 131 42 328 -11 479
-3 10 25 -12 63 -49 38 -36 97 -84 131 -106z m-333 88 c-33 -121 -29 -277 13
-429 5 -20 -1 -17 -32 18 -81 89 -232 177 -353 205 l-57 13 45 12 c139 36 264
106 349 195 25 25 46 44 48 43 1 -2 -5 -27 -13 -57z m-1260 -60 c-16 -93 -17
-151 -3 -243 11 -72 64 -233 79 -242 5 -3 -4 -34 -20 -68 -49 -109 -64 -180
-64 -316 l-1 -123 -27 86 c-78 242 -86 524 -23 773 23 92 65 217 70 211 1 -2
-3 -37 -11 -78z m679 -182 c-29 -50 -153 -170 -215 -206 -31 -18 -88 -44 -126
-58 -66 -23 -201 -48 -210 -39 -17 17 124 166 209 221 100 65 232 111 327 113
l33 1 -18 -32z m227 6 c104 -30 209 -93 296 -179 45 -44 87 -91 94 -104 l12
-23 -54 7 c-168 22 -349 124 -451 254 -26 32 -47 62 -47 66 0 10 81 -2 150
-21z m1020 19 c0 -16 -89 -121 -132 -156 -104 -85 -239 -145 -367 -162 l-53
-7 18 32 c51 85 195 201 308 247 91 37 226 64 226 46z m185 -8 c141 -29 304
-132 397 -249 l40 -50 -28 -8 c-40 -11 -171 23 -260 67 -78 38 -196 140 -245
211 l-30 44 28 0 c15 0 60 -7 98 -15z m-1350 -88 c56 -152 56 -320 1 -478 -34
-98 -41 -102 -66 -43 -58 134 -71 327 -32 467 28 97 50 143 64 129 5 -5 20
-39 33 -75z m1244 -2 c58 -176 51 -375 -19 -520 -17 -36 -25 -43 -35 -35 -18
15 -51 116 -69 212 -13 68 -13 90 -1 170 16 106 23 132 55 206 27 64 38 59 69
-33z m-1001 -163 c42 -22 104 -48 136 -57 l59 -17 -69 -23 c-117 -37 -205 -89
-288 -169 -26 -26 -48 -46 -50 -46 -2 0 3 26 12 58 22 78 22 286 0 365 l-16
57 69 -64 c39 -36 103 -81 147 -104z m875 106 c-29 -108 -27 -314 4 -395 4
-10 -22 8 -58 40 -70 62 -192 131 -278 157 l-55 16 90 32 c102 36 189 90 254
156 24 25 47 46 51 46 3 0 0 -24 -8 -52z m-1249 -34 c-26 -110 -12 -288 31
-409 4 -11 -9 -1 -29 22 -77 88 -238 188 -352 217 l-47 12 84 27 c101 34 199
90 271 156 29 27 54 48 56 47 1 -2 -5 -34 -14 -72z m1511 -11 c63 -47 130 -83
202 -108 38 -13 61 -26 53 -29 -138 -49 -216 -91 -302 -165 l-51 -45 7 30 c22
92 17 316 -10 389 -5 16 0 13 27 -11 19 -17 52 -44 74 -61z m394 -152 c23 -6
23 -7 -26 -71 -83 -110 -236 -210 -369 -243 -82 -21 -154 -30 -154 -20 0 22
63 104 126 163 80 75 183 133 286 160 78 20 99 22 137 11z m-1229 -9 c0 -20
-117 -147 -172 -188 -111 -82 -287 -147 -352 -130 l-28 7 28 37 c97 132 231
222 399 267 56 15 125 19 125 7z m262 -26 c96 -34 169 -79 253 -158 65 -61
116 -130 104 -142 -8 -8 -153 21 -211 44 -76 28 -192 106 -249 166 -55 59 -89
103 -89 117 0 16 114 0 192 -27z m-1292 3 c109 -30 205 -84 287 -163 66 -62
121 -132 112 -141 -8 -6 -123 16 -183 36 -123 41 -262 142 -334 243 l-33 46
38 0 c21 0 72 -9 113 -21z m-22 -162 c69 -58 186 -120 269 -143 l62 -17 -87
-29 c-142 -48 -261 -130 -348 -240 l-53 -69 -21 41 c-79 155 -79 434 0 589
l21 42 50 -63 c27 -35 75 -84 107 -111z m2378 55 c26 -78 29 -101 29 -217 0
-116 -3 -139 -29 -217 -42 -129 -45 -131 -90 -69 -86 117 -211 206 -363 256
l-96 32 54 13 c100 22 229 93 310 169 42 38 88 88 104 111 36 51 41 46 81 -78z
m-1232 -59 c30 -136 17 -300 -36 -432 l-21 -53 -18 35 c-38 72 -61 184 -61
290 1 124 12 179 62 302 l12 30 23 -50 c12 -27 30 -82 39 -122z m-139 35 c-31
-103 -30 -286 2 -393 4 -14 -9 -6 -43 25 -84 79 -178 136 -279 170 l-50 17 40
13 c88 28 201 96 270 161 39 37 71 66 73 64 2 -2 -4 -27 -13 -57z m203 3 c82
-78 166 -129 281 -167 l93 -31 -38 -7 c-109 -20 -244 -94 -338 -184 -48 -47
-57 -52 -52 -32 4 14 15 67 24 119 13 79 14 108 4 185 -6 51 -18 111 -26 134
-8 23 -14 42 -13 42 1 0 30 -27 65 -59z m-547 -217 c153 -46 278 -139 379
-283 l24 -34 -75 6 c-134 10 -289 87 -398 198 -42 43 -81 103 -81 125 0 10
103 2 151 -12z m-248 -25 c-31 -53 -167 -173 -239 -211 -98 -52 -294 -104
-294 -79 0 27 117 151 191 201 92 63 241 117 332 119 l28 1 -18 -31z m1257 24
c0 -3 -19 -31 -42 -61 -78 -101 -211 -191 -338 -230 -79 -24 -170 -37 -170
-25 0 5 25 39 55 75 101 123 254 211 413 238 63 10 82 11 82 3z m205 -19 c104
-25 215 -86 302 -168 43 -41 86 -88 96 -105 l18 -31 -24 0 c-50 0 -181 41
-260 81 -64 33 -103 63 -174 135 -51 51 -93 97 -93 103 0 11 46 6 135 -15z
m-1350 -83 c28 -82 39 -204 27 -290 -12 -83 -69 -252 -88 -258 -15 -5 -62 138
-74 227 -17 119 2 257 52 372 l22 51 23 -29 c12 -16 29 -49 38 -73z m1224 5
c32 -97 44 -192 38 -286 -9 -118 -63 -290 -87 -275 -15 10 -51 117 -71 212
-17 84 -17 99 -4 185 16 107 23 132 55 207 21 48 25 52 36 36 8 -10 22 -45 33
-79z m-1367 -43 c-11 -34 -16 -89 -16 -188 -1 -148 16 -230 66 -329 l20 -39
-68 7 c-144 15 -289 82 -397 185 -52 49 -127 140 -127 153 0 3 28 8 63 11 144
13 299 85 411 189 33 31 62 57 63 58 0 0 -6 -21 -15 -47z m1233 -47 c-24 -125
-16 -269 21 -390 4 -13 -8 -4 -34 25 -59 66 -184 149 -282 186 -47 17 -78 34
-70 37 8 2 33 10 55 16 77 24 199 95 260 151 33 32 61 56 62 55 2 -1 -4 -37
-12 -80z m295 -23 c98 -67 234 -121 343 -137 26 -4 47 -10 47 -13 0 -15 -79
-109 -133 -159 -102 -92 -294 -173 -411 -174 -23 0 -27 3 -21 18 52 120 69
192 73 305 4 105 -6 202 -25 256 -4 9 13 -2 38 -24 24 -23 64 -55 89 -72z
m-1161 -52 c42 -21 95 -45 119 -52 48 -14 45 -21 -13 -39 -71 -22 -173 -81
-246 -143 -40 -33 -70 -53 -67 -46 28 73 40 249 25 362 l-7 59 57 -51 c31 -28
91 -68 132 -90z m295 -113 c-9 -18 -54 -70 -99 -114 -66 -66 -100 -90 -176
-128 -88 -44 -198 -75 -262 -76 l-28 0 18 32 c36 65 184 202 260 241 81 42
196 76 261 76 l43 1 -17 -32z m246 -5 c41 -13 100 -38 130 -56 61 -34 204
-173 234 -226 l18 -33 -53 7 c-145 19 -302 99 -408 206 -44 45 -91 113 -91
133 0 11 97 -7 170 -31z m-139 -103 c59 -155 58 -327 -2 -492 -19 -52 -25 -58
-49 -58 -24 0 -30 6 -48 58 -38 105 -46 146 -46 257 0 117 11 182 52 284 l25
64 24 -29 c13 -16 33 -54 44 -84z m-152 -57 c-34 -140 -20 -329 32 -450 l18
-43 -52 0 c-154 0 -339 102 -458 253 -22 27 -39 53 -39 58 0 5 17 9 38 9 50 0
171 34 235 66 67 34 163 102 206 148 19 20 36 36 37 36 1 0 -7 -35 -17 -77z
m244 -8 c96 -83 288 -165 389 -165 21 0 38 -5 38 -11 0 -20 -79 -113 -138
-161 -99 -84 -247 -148 -339 -148 -39 0 -39 0 -14 73 41 117 46 339 11 431 -5
15 -7 26 -4 26 3 0 29 -20 57 -45z m816 -108 c-134 -128 -335 -247 -520 -307
-50 -17 -96 -30 -102 -30 -7 0 16 18 50 40 63 41 168 146 199 199 15 26 25 31
73 36 129 15 282 68 346 118 45 37 25 12 -46 -56z m-1795 -33 c43 -13 95 -25
115 -25 71 -2 88 -12 134 -76 46 -62 144 -151 198 -179 59 -30 20 -25 -87 11
-135 45 -274 117 -387 201 -62 45 -87 70 -87 85 0 16 4 19 18 14 9 -5 52 -19
96 -31z"/>
<path d="M1511 3911 c-19 -15 -32 -33 -30 -39 2 -7 21 3 43 22 22 18 35 35 30
38 -5 4 -25 -6 -43 -21z"/>
<path d="M3509 3844 c-13 -15 -37 -35 -54 -45 -29 -18 -29 -19 -6 -19 27 0
114 67 106 81 -10 15 -20 11 -46 -17z"/>
<path d="M1491 3849 c-1 -4 6 -23 15 -44 18 -43 13 -62 -18 -74 -21 -8 -21
-10 -5 -16 13 -5 25 -1 39 13 l20 20 -25 53 c-14 30 -26 51 -26 48z"/>
<path d="M1444 3709 c1 -15 -7 -27 -24 -35 -21 -11 -22 -14 -7 -20 11 -4 25 1
37 11 24 21 24 25 7 50 -13 17 -14 17 -13 -6z"/>
<path d="M3873 3610 c-61 -49 -118 -90 -128 -90 -9 0 -13 -4 -10 -10 11 -18
42 -10 80 20 27 22 41 27 50 20 10 -8 25 6 61 57 26 37 52 74 57 81 19 24 0
11 -110 -78z"/>
<path d="M1338 3589 c-28 -45 -43 -59 -61 -59 -12 0 -27 3 -33 8 -5 4 -1 -1
10 -11 11 -10 29 -17 40 -15 25 4 103 115 90 128 -5 5 -25 -17 -46 -51z"/>
<path d="M1220 3460 c-13 -27 -32 -58 -42 -67 -18 -17 -21 -17 -49 0 -17 9
-27 12 -24 7 4 -6 20 -17 37 -26 28 -14 31 -14 50 3 21 18 68 104 68 123 0 24
-18 6 -40 -40z"/>
<path d="M760 3428 c25 -22 62 -53 82 -70 l37 -29 15 29 15 30 -90 41 c-49 22
-93 41 -97 41 -4 -1 13 -19 38 -42z"/>
<path d="M962 3317 c-12 -23 -19 -44 -14 -49 5 -5 17 9 27 32 10 22 19 40 20
40 1 0 22 -9 46 -19 79 -34 86 -34 104 -7 9 14 13 31 9 37 -5 9 -10 6 -15 -10
-13 -34 -36 -36 -98 -9 l-57 25 -22 -40z"/>
<path d="M880 3206 c0 -2 8 -10 18 -17 15 -13 16 -12 3 4 -13 16 -21 21 -21
13z"/>
<path d="M1025 3167 c-7 -15 -18 -22 -38 -22 -26 1 -27 0 -11 -12 10 -8 25
-12 33 -11 19 4 42 41 33 55 -5 8 -11 5 -17 -10z"/>
<path d="M4157 2327 c-5 -60 -3 -76 9 -65 11 11 17 115 7 121 -6 4 -13 -18
-16 -56z"/>
<path d="M930 2289 c0 -3 5 -20 11 -37 23 -65 -27 -139 -100 -149 -44 -6 -46
-23 -3 -23 87 0 151 113 107 190 -8 14 -14 22 -15 19z"/>
<path d="M722 1928 c-59 -8 -72 -13 -68 -25 4 -8 9 -26 12 -39 l6 -23 61 31
c34 17 64 34 65 39 2 5 13 9 25 9 12 0 29 5 37 10 19 12 -35 11 -138 -2z"/>
<path d="M4086 1832 c26 -22 163 -112 172 -112 13 0 35 52 25 60 -8 7 -183 60
-198 60 -5 0 -5 -4 1 -8z"/>
<path d="M1073 1802 c6 -26 -13 -51 -142 -186 -74 -77 -75 -78 -32 -55 54 30
191 181 191 212 0 12 -5 29 -11 37 -9 12 -10 10 -6 -8z"/>
<path d="M3870 1676 c0 -2 8 -10 18 -17 15 -13 16 -12 3 4 -13 16 -21 21 -21
13z"/>
<path d="M1164 1640 c0 -11 6 -20 13 -20 11 0 11 5 3 20 -6 11 -12 20 -13 20
-2 0 -3 -9 -3 -20z"/>
<path d="M3930 1632 c21 -17 22 -22 11 -36 -8 -9 -12 -18 -10 -20 7 -7 143
-45 147 -41 2 2 -29 25 -70 52 -84 57 -114 74 -78 45z"/>
<path d="M1240 1536 c0 -2 8 -10 18 -17 15 -13 16 -12 3 4 -13 16 -21 21 -21
13z"/>
<path d="M1280 1486 c0 -2 8 -10 18 -17 15 -13 16 -12 3 4 -13 16 -21 21 -21
13z"/>
<path d="M1334 1415 c3 -21 16 -31 16 -12 0 9 -4 18 -9 21 -5 4 -8 -1 -7 -9z"/>
<path d="M3692 1388 c-18 -18 -15 -38 16 -91 81 -141 292 -274 292 -184 0 62
-145 228 -234 268 -49 22 -58 23 -74 7z m72 -16 c3 -5 -8 -24 -23 -43 l-29
-34 -7 27 c-4 16 -5 35 -1 43 6 16 51 21 60 7z"/>
<path d="M1477 1236 c-3 -8 -16 -16 -29 -18 -21 -4 -22 -5 -4 -13 22 -10 50 5
54 29 4 20 -14 22 -21 2z"/>
<path d="M3480 1208 c0 -9 -13 -26 -30 -38 -34 -24 -35 -29 -15 -56 14 -19 14
-19 9 1 -4 15 3 25 25 38 32 19 37 32 21 57 -8 13 -10 13 -10 -2z"/>
<path d="M3291 1074 c-31 -17 -39 -25 -28 -30 15 -6 71 18 82 35 12 20 -12 17
-54 -5z"/>
<path d="M1805 967 c-4 -61 -11 -134 -15 -162 -4 -27 -7 -51 -5 -53 2 -2 10
19 20 47 18 55 31 266 16 275 -5 3 -12 -45 -16 -107z"/>
<path d="M3190 943 c0 -15 41 -197 46 -202 7 -8 65 23 61 33 -11 27 -107 180
-107 169z"/>
<path d="M1985 933 c15 -15 65 -25 65 -13 0 5 -6 10 -12 10 -7 0 -24 3 -38 6
-17 5 -22 3 -15 -3z"/>
<path d="M2577 753 c3 -60 7 -110 9 -111 1 -2 12 -1 24 3 27 9 60 62 60 98 0
25 -3 27 -40 27 -39 0 -40 1 -40 36 0 36 1 36 33 30 30 -5 31 -5 13 9 -11 8
-30 15 -42 15 -21 0 -22 -2 -17 -107z"/>
<path d="M2938 833 c-14 -4 -12 -12 15 -58 17 -30 32 -53 34 -51 5 5 -18 100
-26 107 -3 3 -13 4 -23 2z"/>
</g>
</svg>
